<?xml version="1.0" encoding="utf-8"?>
<!-- Generator: Adobe Illustrator 21.0.0, SVG Export Plug-In . SVG Version: 6.00 Build 0)  -->
<svg version="1.1" xmlns="http://www.w3.org/2000/svg" xmlns:xlink="http://www.w3.org/1999/xlink" x="0px" y="0px"
	 viewBox="0 0 359.2 467.3" style="enable-background:new 0 0 359.2 467.3;" xml:space="preserve">
<style type="text/css">
	.st0{clip-path:url(#SVGID_2_);}
	.st1{fill:#00BDF0;}
	.st2{fill:#0075C9;}
	.st3{clip-path:url(#SVGID_4_);}
	.st4{fill:none;stroke:#00BDF0;stroke-width:4.8302;stroke-miterlimit:10;}
	.st5{fill:none;stroke:#0075C9;stroke-width:4.8302;stroke-miterlimit:10;}
	.st6{fill:#FFFFFF;}
	.st7{fill:#0BBBEF;}
	.st8{fill:none;stroke:#0075C9;stroke-width:6.2362;stroke-miterlimit:10;}
	.st9{clip-path:url(#SVGID_6_);}
	.st10{clip-path:url(#SVGID_10_);}
	.st11{fill:#E94F0A;}
	.st12{fill:#F7AF2C;}
	.st13{fill:#98C000;}
	.st14{fill:#00A6EB;}
	.st15{fill:#6A1485;}
	.st16{fill:#940084;}
	.st17{fill:#E60004;}
	.st18{opacity:0.15;}
	.st19{clip-path:url(#SVGID_14_);}
	.st20{clip-path:url(#SVGID_16_);}
	.st21{fill:#FFFFFF;stroke:#FFFFFF;stroke-width:6.0945;stroke-miterlimit:10;}
	.st22{clip-path:url(#SVGID_18_);}
	.st23{fill:#98989C;}
	.st24{fill:#D6D7D7;stroke:#0C0405;stroke-width:0.3408;stroke-linecap:round;stroke-linejoin:round;stroke-miterlimit:10;}
	.st25{fill:#FFFFFF;stroke:#0C0405;stroke-width:0.3408;stroke-linecap:round;stroke-linejoin:round;stroke-miterlimit:10;}
	.st26{fill:#FFFFFF;stroke:#0C0405;stroke-width:0.3408;stroke-miterlimit:10;}
	.st27{fill:#6F6B6A;stroke:#0C0405;stroke-width:0.3259;stroke-miterlimit:10;}
	.st28{fill:#61ACA0;stroke:#0C0405;stroke-width:0.3408;stroke-miterlimit:10;}
	.st29{fill:#FFFFFF;stroke:#0C0405;stroke-width:0.3925;stroke-linecap:round;stroke-linejoin:round;stroke-miterlimit:10;}
	.st30{fill:#D6D7D7;stroke:#0C0405;stroke-width:0.3925;stroke-linecap:round;stroke-linejoin:round;stroke-miterlimit:10;}
	.st31{fill:#61ACA0;}
	.st32{fill:#FFFFFF;stroke:#0C0405;stroke-width:0.3408;stroke-linejoin:round;stroke-miterlimit:10;}
	.st33{fill:#7E9DA4;stroke:#0C0405;stroke-width:0.3127;stroke-linejoin:round;stroke-miterlimit:10;}
	.st34{clip-path:url(#SVGID_22_);fill:#50688E;}
	.st35{fill:#FFFFFF;stroke:#0C0405;stroke-width:0.3015;stroke-linejoin:round;stroke-miterlimit:10;}
	.st36{fill:#FFFFFF;stroke:#0C0405;stroke-width:0.2682;stroke-linejoin:round;stroke-miterlimit:10;}
	.st37{fill:#FFFFFF;stroke:#0C0405;stroke-width:0.296;stroke-linecap:round;stroke-linejoin:round;stroke-miterlimit:10;}
	.st38{fill:#504F53;}
	.st39{fill:#FFFFFF;stroke:#FFFFFF;stroke-width:4.8756;stroke-miterlimit:10;}
	.st40{fill:#96969A;}
	.st41{opacity:0.51;fill:url(#SVGID_23_);}
	.st42{opacity:0.51;fill:url(#SVGID_24_);}
	.st43{opacity:0.51;fill:url(#SVGID_25_);}
	.st44{opacity:0.51;fill:url(#SVGID_26_);}
	.st45{opacity:0.51;fill:url(#SVGID_27_);}
	.st46{opacity:0.51;fill:url(#SVGID_28_);}
	.st47{fill:#E36B60;stroke:#0C0405;stroke-width:0.3408;stroke-miterlimit:10;}
	.st48{fill:#E36B60;}
	.st49{opacity:0.26;}
	.st50{fill:#0074C5;}
	.st51{opacity:0.51;fill:url(#SVGID_31_);}
	.st52{opacity:0.51;fill:url(#SVGID_32_);}
	.st53{clip-path:url(#SVGID_34_);}
	.st54{fill:#0074C5;stroke:#0074C5;stroke-width:6.0945;stroke-miterlimit:10;}
	.st55{fill:none;stroke:#0075C9;stroke-width:0.86;stroke-miterlimit:10;}
	.st56{clip-path:url(#SVGID_38_);}
	.st57{clip-path:url(#SVGID_40_);}
	.st58{clip-path:url(#SVGID_42_);}
	.st59{clip-path:url(#SVGID_50_);}
	.st60{clip-path:url(#SVGID_52_);}
	.st61{fill:none;stroke:#98989C;stroke-width:0.86;stroke-miterlimit:10;}
	.st62{fill:none;stroke:#98989C;stroke-width:0.9362;stroke-miterlimit:10;}
	.st63{clip-path:url(#SVGID_68_);fill:none;}
	.st64{fill:#2A2886;}
	.st65{fill:none;stroke:#2A2886;stroke-width:6.2362;stroke-miterlimit:10;}
	.st66{fill:url(#SVGID_71_);}
	.st67{fill:#FFFFFF;stroke:#2A2886;stroke-width:6.2362;stroke-miterlimit:10;}
	.st68{fill:#FFFFFF;stroke:#98C000;stroke-width:6.2362;stroke-miterlimit:10;}
	.st69{fill:none;stroke:#98C000;stroke-width:6.2362;stroke-miterlimit:10;}
	.st70{fill:url(#SVGID_72_);}
	.st71{fill:none;stroke:url(#SVGID_73_);stroke-width:6.2362;stroke-miterlimit:10;}
	.st72{fill:none;stroke:#00B6EE;stroke-width:6.2362;stroke-miterlimit:10;}
	.st73{fill:url(#SVGID_74_);}
	.st74{fill:url(#SVGID_75_);}
	.st75{fill:#0075C9;stroke:#0075C9;stroke-width:40.9392;stroke-miterlimit:10;}
	.st76{clip-path:url(#SVGID_77_);}
	.st77{fill:none;stroke:#0BBBEF;stroke-width:20.8931;stroke-miterlimit:10;}
	.st78{clip-path:url(#SVGID_79_);}
	.st79{fill:none;stroke:#0BBBEF;stroke-width:8.8583;stroke-miterlimit:10;}
	.st80{clip-path:url(#SVGID_81_);}
	.st81{fill:none;stroke:#0BBBEF;stroke-width:40.9527;stroke-miterlimit:10;}
	.st82{clip-path:url(#SVGID_83_);}
	.st83{fill:none;stroke:#0075C9;stroke-width:48.2827;stroke-miterlimit:10;}
	.st84{clip-path:url(#SVGID_85_);}
	.st85{fill:none;stroke:#0BBBEF;stroke-width:8.9637;stroke-miterlimit:10;}
	.st86{clip-path:url(#SVGID_87_);}
	.st87{clip-path:url(#SVGID_89_);}
	.st88{clip-path:url(#SVGID_91_);}
	.st89{clip-path:url(#SVGID_93_);}
	.st90{clip-path:url(#SVGID_95_);}
	.st91{clip-path:url(#SVGID_99_);}
	.st92{clip-path:url(#SVGID_101_);}
	.st93{clip-path:url(#SVGID_103_);}
	.st94{opacity:0.75;}
	.st95{opacity:0.75;clip-path:url(#SVGID_107_);}
	.st96{clip-path:url(#SVGID_107_);}
	.st97{fill:none;stroke:#00BDF0;stroke-width:3.4662;stroke-miterlimit:10;}
	.st98{clip-path:url(#SVGID_111_);}
	.st99{fill:none;stroke:#0075C9;stroke-width:4.204;stroke-miterlimit:10;}
	.st100{clip-path:url(#SVGID_113_);}
	.st101{fill:#1C194B;}
	.st102{opacity:0.5;}
	.st103{display:none;}
	.st104{display:inline;fill:none;stroke:#E50083;stroke-width:0.8668;stroke-miterlimit:10;}
</style>
<g id="Слой_1">
	<g>
		<g>
			<defs>
				<rect id="SVGID_82_" x="1.1" y="-21.5" width="357" height="129"/>
			</defs>
			<clipPath id="SVGID_2_">
				<use xlink:href="#SVGID_82_"  style="overflow:visible;"/>
			</clipPath>
			<g class="st0">
				<path class="st83" d="M1262.7,78.1h-8.3c-38.1,0-62.6-11.6-88.5-24l0,0c-28.6-13.6-58.1-27.6-105-27.6
					c-46.4,0-75.8,14-104.2,27.5c-26.1,12.4-50.7,24.1-89.3,24.1c-38.1,0-62.6-11.6-88.5-24c-28.6-13.6-58.1-27.6-105-27.6
					c-46.4,0-75.8,14-104.2,27.5c-26.1,12.4-50.7,24.1-89.3,24.1c-38.1,0-62.6-11.6-88.5-24c-28.6-13.6-58.1-27.6-105-27.6
					c-46.4,0-75.8,14-104.2,27.5c-26.1,12.4-50.7,24.1-89.3,24.1c-29.8,0-51-6.8-73.7-17c-5-2.2-9.9-4.6-15-7
					c-5.2-2.5-10.5-5-15.9-7.4c-10.9-4.9-20.2-8.5-29.4-11.3c-6.8-2.1-13.4-3.8-20.2-5.1c-12.7-2.5-25.6-3.7-39.5-3.7
					c-46.4,0-75.8,14-104.2,27.5c-26.1,12.4-50.7,24.1-89.3,24.1c-38.1,0-62.6-11.6-88.5-24c-28.6-13.6-58.1-27.6-105-27.6
					c-46.4,0-75.8,14-104.2,27.5"/>
			</g>
		</g>
		<g>
			<path class="st2" d="M286.8,152.2c9.5,0,18.6,0.7,27.5,2.2v119.7c0,24.6-6.5,46.4-19.8,66.5c-11.3,17.1-27.4,32.8-48,46.7
				c-25.8,17.5-52.3,27.9-66.8,32.8c-14.1-4.8-39.6-14.8-64.9-31.5c-21.1-14-37.7-29.8-49.3-47.1C51.7,321.2,45,299.1,45,274.1
				l0-75.7c14.1,3.3,29.9,5.5,48.2,5.5c48.7,0,80.6-15.1,108.6-28.5C228,163,250.6,152.2,286.8,152.2 M286.8,107.2
				c-46.4,0-75.8,14-104.2,27.5c-26.1,12.4-50.7,24.1-89.3,24.1c-29.8,0-51-6.8-73.7-17c-5-2.2-9.9-4.6-15-7
				c-1.2-0.5-4.6-2.3-4.6-2.3l0,141.6c0,147.9,179.6,193.1,179.6,193.1s179.6-45.2,179.6-193.1V120.1
				C339.5,112.7,316,107.2,286.8,107.2L286.8,107.2z"/>
		</g>
	</g>
</g>
<g id="Слой_2">
</g>
<g id="txt">
</g>
<g id="kom">
</g>
<g id="Слой_3" class="st103">
	<rect x="-77" y="-156.9" class="st104" width="1106.8" height="754.1"/>
</g>
<g id="Слой_6">
</g>
<g id="Слой_7">
</g>
<g id="Слой_8">
</g>
</svg>
